<mxfile host="app.diagrams.net" modified="2023-07-14T08:08:11.409Z" agent="Mozilla/5.0 (Windows NT 10.0; Win64; x64) AppleWebKit/537.36 (KHTML, like Gecko) Chrome/114.0.0.0 Safari/537.36 Edg/114.0.1823.67" etag="HaJfkZ2eIQVkkDFckHon" version="21.6.2" type="device">
  <diagram name="第 1 页" id="z_PtKLMlxQIDmonjEBnW">
    <mxGraphModel dx="2298" dy="1337" grid="1" gridSize="10" guides="1" tooltips="1" connect="1" arrows="1" fold="1" page="1" pageScale="1" pageWidth="2336" pageHeight="1654" math="0" shadow="0">
      <root>
        <mxCell id="0" />
        <mxCell id="1" parent="0" />
        <mxCell id="6GQvzPRbgIQKS9411y36-8" style="edgeStyle=orthogonalEdgeStyle;rounded=0;orthogonalLoop=1;jettySize=auto;html=1;entryX=0;entryY=0.5;entryDx=0;entryDy=0;exitX=0.997;exitY=0.316;exitDx=0;exitDy=0;exitPerimeter=0;" parent="1" source="6GQvzPRbgIQKS9411y36-2" target="6GQvzPRbgIQKS9411y36-5" edge="1">
          <mxGeometry relative="1" as="geometry">
            <mxPoint x="390" y="370" as="sourcePoint" />
          </mxGeometry>
        </mxCell>
        <mxCell id="6GQvzPRbgIQKS9411y36-7" value="" style="group" parent="1" vertex="1" connectable="0">
          <mxGeometry x="560" y="320" width="139" height="140" as="geometry" />
        </mxCell>
        <mxCell id="6GQvzPRbgIQKS9411y36-10" style="edgeStyle=orthogonalEdgeStyle;rounded=0;orthogonalLoop=1;jettySize=auto;html=1;exitX=1;exitY=0.5;exitDx=0;exitDy=0;" parent="6GQvzPRbgIQKS9411y36-7" source="6GQvzPRbgIQKS9411y36-5" edge="1">
          <mxGeometry relative="1" as="geometry">
            <mxPoint x="130.17647058823536" y="70.11764705882365" as="targetPoint" />
          </mxGeometry>
        </mxCell>
        <mxCell id="6GQvzPRbgIQKS9411y36-5" value="&lt;font style=&quot;font-size: 24px;&quot;&gt;PC&lt;/font&gt;" style="rounded=0;whiteSpace=wrap;html=1;" parent="6GQvzPRbgIQKS9411y36-7" vertex="1">
          <mxGeometry width="130" height="140" as="geometry" />
        </mxCell>
        <mxCell id="6GQvzPRbgIQKS9411y36-6" value="" style="triangle;whiteSpace=wrap;html=1;rotation=-90;" parent="6GQvzPRbgIQKS9411y36-7" vertex="1">
          <mxGeometry x="51.25" y="110" width="27.5" height="32.5" as="geometry" />
        </mxCell>
        <mxCell id="6GQvzPRbgIQKS9411y36-34" value="&lt;font style=&quot;font-size: 20px;&quot;&gt;din&lt;/font&gt;" style="text;html=1;strokeColor=none;fillColor=none;align=center;verticalAlign=middle;whiteSpace=wrap;rounded=0;" parent="6GQvzPRbgIQKS9411y36-7" vertex="1">
          <mxGeometry x="-8.75" y="55" width="60" height="30" as="geometry" />
        </mxCell>
        <mxCell id="6GQvzPRbgIQKS9411y36-35" value="&lt;font style=&quot;font-size: 20px;&quot;&gt;pc&lt;/font&gt;" style="text;html=1;strokeColor=none;fillColor=none;align=center;verticalAlign=middle;whiteSpace=wrap;rounded=0;" parent="6GQvzPRbgIQKS9411y36-7" vertex="1">
          <mxGeometry x="79" y="55" width="60" height="30" as="geometry" />
        </mxCell>
        <mxCell id="6GQvzPRbgIQKS9411y36-9" value="&lt;font style=&quot;font-size: 24px;&quot;&gt;IROM&lt;/font&gt;" style="rounded=0;whiteSpace=wrap;html=1;" parent="1" vertex="1">
          <mxGeometry x="770" y="341.5" width="160" height="97.5" as="geometry" />
        </mxCell>
        <mxCell id="6GQvzPRbgIQKS9411y36-11" value="" style="edgeStyle=orthogonalEdgeStyle;rounded=0;orthogonalLoop=1;jettySize=auto;html=1;" parent="1" source="6GQvzPRbgIQKS9411y36-5" target="6GQvzPRbgIQKS9411y36-9" edge="1">
          <mxGeometry relative="1" as="geometry" />
        </mxCell>
        <mxCell id="6GQvzPRbgIQKS9411y36-13" value="" style="endArrow=classic;html=1;rounded=0;edgeStyle=orthogonalEdgeStyle;entryX=-0.003;entryY=0.198;entryDx=0;entryDy=0;entryPerimeter=0;startArrow=oval;startFill=1;" parent="1" target="6GQvzPRbgIQKS9411y36-2" edge="1">
          <mxGeometry width="50" height="50" relative="1" as="geometry">
            <mxPoint x="720" y="390" as="sourcePoint" />
            <mxPoint x="230" y="270" as="targetPoint" />
            <Array as="points">
              <mxPoint x="720" y="200" />
              <mxPoint x="260" y="200" />
              <mxPoint x="260" y="371" />
            </Array>
          </mxGeometry>
        </mxCell>
        <mxCell id="6GQvzPRbgIQKS9411y36-14" value="" style="endArrow=classic;html=1;rounded=0;entryX=-0.005;entryY=0.552;entryDx=0;entryDy=0;entryPerimeter=0;edgeStyle=orthogonalEdgeStyle;" parent="1" target="6GQvzPRbgIQKS9411y36-2" edge="1">
          <mxGeometry width="50" height="50" relative="1" as="geometry">
            <mxPoint x="960" y="740" as="sourcePoint" />
            <mxPoint x="220" y="360" as="targetPoint" />
            <Array as="points">
              <mxPoint x="960" y="840" />
              <mxPoint x="230" y="840" />
              <mxPoint x="230" y="431" />
            </Array>
          </mxGeometry>
        </mxCell>
        <mxCell id="6GQvzPRbgIQKS9411y36-15" value="" style="endArrow=classic;html=1;rounded=0;edgeStyle=orthogonalEdgeStyle;exitX=1;exitY=0.334;exitDx=0;exitDy=0;exitPerimeter=0;startArrow=dash;startFill=0;" parent="1" source="kU-_FVk9JHTEXMWnnN7E-1" edge="1">
          <mxGeometry width="50" height="50" relative="1" as="geometry">
            <mxPoint x="1480" y="210" as="sourcePoint" />
            <mxPoint x="290" y="490" as="targetPoint" />
            <Array as="points">
              <mxPoint x="1430" y="210" />
              <mxPoint x="1430" y="40" />
              <mxPoint x="160" y="40" />
              <mxPoint x="160" y="490" />
            </Array>
          </mxGeometry>
        </mxCell>
        <mxCell id="zNF0i5-EFTVFY3dPYjrF-10" value="2" style="edgeLabel;html=1;align=center;verticalAlign=middle;resizable=0;points=[];fontSize=18;" parent="6GQvzPRbgIQKS9411y36-15" vertex="1" connectable="0">
          <mxGeometry x="-0.9792" relative="1" as="geometry">
            <mxPoint x="-3" y="-6" as="offset" />
          </mxGeometry>
        </mxCell>
        <mxCell id="6GQvzPRbgIQKS9411y36-16" value="" style="endArrow=classic;html=1;rounded=0;entryX=-0.005;entryY=0.723;entryDx=0;entryDy=0;entryPerimeter=0;edgeStyle=orthogonalEdgeStyle;exitX=0.359;exitY=0.001;exitDx=0;exitDy=0;exitPerimeter=0;" parent="1" source="rz7ka_7LxreLIK_kCy7e-50" target="6GQvzPRbgIQKS9411y36-2" edge="1">
          <mxGeometry width="50" height="50" relative="1" as="geometry">
            <mxPoint x="1730" y="560" as="sourcePoint" />
            <mxPoint x="220" y="390" as="targetPoint" />
            <Array as="points">
              <mxPoint x="1660" y="565" />
              <mxPoint x="1660" y="920" />
              <mxPoint x="260" y="920" />
              <mxPoint x="260" y="460" />
            </Array>
          </mxGeometry>
        </mxCell>
        <mxCell id="6GQvzPRbgIQKS9411y36-21" value="" style="endArrow=classic;html=1;rounded=0;edgeStyle=orthogonalEdgeStyle;startArrow=oval;startFill=1;entryX=0;entryY=0.371;entryDx=0;entryDy=0;entryPerimeter=0;" parent="1" target="6GQvzPRbgIQKS9411y36-2" edge="1">
          <mxGeometry width="50" height="50" relative="1" as="geometry">
            <mxPoint x="1630" y="720" as="sourcePoint" />
            <mxPoint x="180" y="380" as="targetPoint" />
            <Array as="points">
              <mxPoint x="1630" y="880" />
              <mxPoint x="200" y="880" />
              <mxPoint x="200" y="400" />
            </Array>
          </mxGeometry>
        </mxCell>
        <mxCell id="6GQvzPRbgIQKS9411y36-27" value="" style="endArrow=classic;html=1;rounded=0;edgeStyle=orthogonalEdgeStyle;exitX=1;exitY=0.75;exitDx=0;exitDy=0;entryX=0.18;entryY=1.018;entryDx=0;entryDy=0;entryPerimeter=0;" parent="1" source="6GQvzPRbgIQKS9411y36-2" target="kU-_FVk9JHTEXMWnnN7E-41" edge="1">
          <mxGeometry width="50" height="50" relative="1" as="geometry">
            <mxPoint x="300" y="640" as="sourcePoint" />
            <mxPoint x="1040" y="640" as="targetPoint" />
            <Array as="points">
              <mxPoint x="530" y="465" />
              <mxPoint x="530" y="560" />
              <mxPoint x="880" y="560" />
              <mxPoint x="880" y="642" />
            </Array>
          </mxGeometry>
        </mxCell>
        <mxCell id="6GQvzPRbgIQKS9411y36-31" value="" style="endArrow=classic;html=1;rounded=0;edgeStyle=orthogonalEdgeStyle;entryX=0;entryY=0.25;entryDx=0;entryDy=0;" parent="1" target="6GQvzPRbgIQKS9411y36-5" edge="1">
          <mxGeometry width="50" height="50" relative="1" as="geometry">
            <mxPoint x="520" y="260" as="sourcePoint" />
            <mxPoint x="570" y="210" as="targetPoint" />
            <Array as="points">
              <mxPoint x="520" y="355" />
            </Array>
          </mxGeometry>
        </mxCell>
        <mxCell id="6GQvzPRbgIQKS9411y36-32" value="&lt;font style=&quot;font-size: 20px;&quot;&gt;reset&lt;/font&gt;" style="text;html=1;strokeColor=none;fillColor=none;align=center;verticalAlign=middle;whiteSpace=wrap;rounded=0;" parent="1" vertex="1">
          <mxGeometry x="498" y="230" width="60" height="30" as="geometry" />
        </mxCell>
        <mxCell id="6GQvzPRbgIQKS9411y36-33" value="&lt;font style=&quot;font-size: 20px;&quot;&gt;rst&lt;/font&gt;" style="text;html=1;strokeColor=none;fillColor=none;align=center;verticalAlign=middle;whiteSpace=wrap;rounded=0;" parent="1" vertex="1">
          <mxGeometry x="550" y="342" width="60" height="30" as="geometry" />
        </mxCell>
        <mxCell id="6GQvzPRbgIQKS9411y36-36" value="&lt;font style=&quot;font-size: 20px;&quot;&gt;adr&lt;/font&gt;" style="text;html=1;strokeColor=none;fillColor=none;align=center;verticalAlign=middle;whiteSpace=wrap;rounded=0;" parent="1" vertex="1">
          <mxGeometry x="760" y="374" width="60" height="30" as="geometry" />
        </mxCell>
        <mxCell id="6GQvzPRbgIQKS9411y36-37" value="&lt;font style=&quot;font-size: 20px;&quot;&gt;inst&lt;/font&gt;" style="text;html=1;strokeColor=none;fillColor=none;align=center;verticalAlign=middle;whiteSpace=wrap;rounded=0;" parent="1" vertex="1">
          <mxGeometry x="880" y="375" width="60" height="30" as="geometry" />
        </mxCell>
        <mxCell id="6GQvzPRbgIQKS9411y36-40" value="" style="endArrow=classic;html=1;rounded=0;entryX=0;entryY=0.5;entryDx=0;entryDy=0;exitX=0.5;exitY=0;exitDx=0;exitDy=0;" parent="1" source="6GQvzPRbgIQKS9411y36-41" target="6GQvzPRbgIQKS9411y36-6" edge="1">
          <mxGeometry width="50" height="50" relative="1" as="geometry">
            <mxPoint x="625" y="500" as="sourcePoint" />
            <mxPoint x="660" y="530" as="targetPoint" />
          </mxGeometry>
        </mxCell>
        <mxCell id="6GQvzPRbgIQKS9411y36-41" value="&lt;font style=&quot;font-size: 20px;&quot;&gt;clk&lt;/font&gt;" style="text;html=1;strokeColor=none;fillColor=none;align=center;verticalAlign=middle;whiteSpace=wrap;rounded=0;" parent="1" vertex="1">
          <mxGeometry x="612.5" y="490" width="25" height="15" as="geometry" />
        </mxCell>
        <mxCell id="kU-_FVk9JHTEXMWnnN7E-1" value="&lt;font style=&quot;font-size: 24px;&quot;&gt;Controller&lt;/font&gt;" style="rounded=0;whiteSpace=wrap;html=1;" parent="1" vertex="1">
          <mxGeometry x="1050" y="150" width="290" height="180" as="geometry" />
        </mxCell>
        <mxCell id="kU-_FVk9JHTEXMWnnN7E-2" value="&lt;font style=&quot;font-size: 24px;&quot;&gt;RF&lt;/font&gt;" style="rounded=0;whiteSpace=wrap;html=1;" parent="1" vertex="1">
          <mxGeometry x="1150" y="450" width="210" height="240" as="geometry" />
        </mxCell>
        <mxCell id="kU-_FVk9JHTEXMWnnN7E-3" value="" style="endArrow=oval;html=1;rounded=0;endFill=1;exitX=1;exitY=0.5;exitDx=0;exitDy=0;" parent="1" source="6GQvzPRbgIQKS9411y36-9" edge="1">
          <mxGeometry width="50" height="50" relative="1" as="geometry">
            <mxPoint x="930" y="390.77" as="sourcePoint" />
            <mxPoint x="950" y="390" as="targetPoint" />
          </mxGeometry>
        </mxCell>
        <mxCell id="kU-_FVk9JHTEXMWnnN7E-4" value="" style="endArrow=none;html=1;rounded=0;" parent="1" edge="1">
          <mxGeometry width="50" height="50" relative="1" as="geometry">
            <mxPoint x="950" y="600" as="sourcePoint" />
            <mxPoint x="950" y="200" as="targetPoint" />
          </mxGeometry>
        </mxCell>
        <mxCell id="kU-_FVk9JHTEXMWnnN7E-5" value="" style="endArrow=classic;html=1;rounded=0;entryX=0;entryY=0.277;entryDx=0;entryDy=0;entryPerimeter=0;" parent="1" target="kU-_FVk9JHTEXMWnnN7E-1" edge="1">
          <mxGeometry width="50" height="50" relative="1" as="geometry">
            <mxPoint x="950" y="200" as="sourcePoint" />
            <mxPoint x="1000" y="150" as="targetPoint" />
          </mxGeometry>
        </mxCell>
        <mxCell id="kU-_FVk9JHTEXMWnnN7E-8" value="6:0" style="edgeLabel;html=1;align=center;verticalAlign=middle;resizable=0;points=[];fontSize=20;" parent="kU-_FVk9JHTEXMWnnN7E-5" vertex="1" connectable="0">
          <mxGeometry x="-0.2292" relative="1" as="geometry">
            <mxPoint x="2" y="-16" as="offset" />
          </mxGeometry>
        </mxCell>
        <mxCell id="kU-_FVk9JHTEXMWnnN7E-6" value="" style="endArrow=classic;html=1;rounded=0;entryX=0;entryY=0.5;entryDx=0;entryDy=0;startArrow=oval;startFill=1;" parent="1" target="kU-_FVk9JHTEXMWnnN7E-1" edge="1">
          <mxGeometry width="50" height="50" relative="1" as="geometry">
            <mxPoint x="950" y="240" as="sourcePoint" />
            <mxPoint x="1030" y="240" as="targetPoint" />
          </mxGeometry>
        </mxCell>
        <mxCell id="kU-_FVk9JHTEXMWnnN7E-10" value="14:12" style="edgeLabel;html=1;align=center;verticalAlign=middle;resizable=0;points=[];fontSize=20;" parent="kU-_FVk9JHTEXMWnnN7E-6" vertex="1" connectable="0">
          <mxGeometry x="-0.2062" y="-1" relative="1" as="geometry">
            <mxPoint y="-16" as="offset" />
          </mxGeometry>
        </mxCell>
        <mxCell id="kU-_FVk9JHTEXMWnnN7E-7" value="" style="endArrow=classic;html=1;rounded=0;entryX=0;entryY=0.719;entryDx=0;entryDy=0;entryPerimeter=0;startArrow=oval;startFill=1;" parent="1" target="kU-_FVk9JHTEXMWnnN7E-1" edge="1">
          <mxGeometry width="50" height="50" relative="1" as="geometry">
            <mxPoint x="950" y="280" as="sourcePoint" />
            <mxPoint x="1030" y="250" as="targetPoint" />
          </mxGeometry>
        </mxCell>
        <mxCell id="kU-_FVk9JHTEXMWnnN7E-11" value="31:25" style="edgeLabel;html=1;align=center;verticalAlign=middle;resizable=0;points=[];fontSize=20;" parent="kU-_FVk9JHTEXMWnnN7E-7" vertex="1" connectable="0">
          <mxGeometry x="-0.2446" y="1" relative="1" as="geometry">
            <mxPoint x="5" y="-13" as="offset" />
          </mxGeometry>
        </mxCell>
        <mxCell id="kU-_FVk9JHTEXMWnnN7E-12" value="" style="endArrow=classic;html=1;rounded=0;entryX=-0.001;entryY=0.292;entryDx=0;entryDy=0;entryPerimeter=0;startArrow=oval;startFill=1;" parent="1" target="kU-_FVk9JHTEXMWnnN7E-2" edge="1">
          <mxGeometry width="50" height="50" relative="1" as="geometry">
            <mxPoint x="950" y="520" as="sourcePoint" />
            <mxPoint x="1030" y="520" as="targetPoint" />
          </mxGeometry>
        </mxCell>
        <mxCell id="kU-_FVk9JHTEXMWnnN7E-15" value="19:15" style="edgeLabel;html=1;align=center;verticalAlign=middle;resizable=0;points=[];fontSize=20;" parent="kU-_FVk9JHTEXMWnnN7E-12" vertex="1" connectable="0">
          <mxGeometry x="-0.1841" y="1" relative="1" as="geometry">
            <mxPoint x="-31" y="-14" as="offset" />
          </mxGeometry>
        </mxCell>
        <mxCell id="kU-_FVk9JHTEXMWnnN7E-13" value="" style="endArrow=classic;html=1;rounded=0;entryX=-0.001;entryY=0.456;entryDx=0;entryDy=0;entryPerimeter=0;startArrow=oval;startFill=1;" parent="1" target="kU-_FVk9JHTEXMWnnN7E-2" edge="1">
          <mxGeometry width="50" height="50" relative="1" as="geometry">
            <mxPoint x="950" y="560" as="sourcePoint" />
            <mxPoint x="1000" y="510" as="targetPoint" />
          </mxGeometry>
        </mxCell>
        <mxCell id="kU-_FVk9JHTEXMWnnN7E-16" value="24:20" style="edgeLabel;html=1;align=center;verticalAlign=middle;resizable=0;points=[];fontSize=20;" parent="kU-_FVk9JHTEXMWnnN7E-13" vertex="1" connectable="0">
          <mxGeometry x="-0.2423" relative="1" as="geometry">
            <mxPoint x="-26" y="-14" as="offset" />
          </mxGeometry>
        </mxCell>
        <mxCell id="kU-_FVk9JHTEXMWnnN7E-14" value="" style="endArrow=classic;html=1;rounded=0;entryX=-0.001;entryY=0.623;entryDx=0;entryDy=0;entryPerimeter=0;startArrow=oval;startFill=1;" parent="1" target="kU-_FVk9JHTEXMWnnN7E-2" edge="1">
          <mxGeometry width="50" height="50" relative="1" as="geometry">
            <mxPoint x="950" y="600" as="sourcePoint" />
            <mxPoint x="1000" y="550" as="targetPoint" />
          </mxGeometry>
        </mxCell>
        <mxCell id="kU-_FVk9JHTEXMWnnN7E-17" value="11:7" style="edgeLabel;html=1;align=center;verticalAlign=middle;resizable=0;points=[];fontSize=20;" parent="kU-_FVk9JHTEXMWnnN7E-14" vertex="1" connectable="0">
          <mxGeometry x="-0.2165" y="-1" relative="1" as="geometry">
            <mxPoint x="-28" y="-16" as="offset" />
          </mxGeometry>
        </mxCell>
        <mxCell id="kU-_FVk9JHTEXMWnnN7E-18" value="&lt;font style=&quot;font-size: 24px;&quot;&gt;SEXT&lt;/font&gt;" style="rounded=0;whiteSpace=wrap;html=1;" parent="1" vertex="1">
          <mxGeometry x="760" y="680" width="140" height="120" as="geometry" />
        </mxCell>
        <mxCell id="kU-_FVk9JHTEXMWnnN7E-19" value="" style="endArrow=none;html=1;rounded=0;" parent="1" edge="1">
          <mxGeometry width="50" height="50" relative="1" as="geometry">
            <mxPoint x="720" y="600" as="sourcePoint" />
            <mxPoint x="950" y="600" as="targetPoint" />
          </mxGeometry>
        </mxCell>
        <mxCell id="kU-_FVk9JHTEXMWnnN7E-22" value="31:7" style="edgeLabel;html=1;align=center;verticalAlign=middle;resizable=0;points=[];fontSize=20;" parent="kU-_FVk9JHTEXMWnnN7E-19" vertex="1" connectable="0">
          <mxGeometry x="-0.123" y="-1" relative="1" as="geometry">
            <mxPoint x="-16" y="-16" as="offset" />
          </mxGeometry>
        </mxCell>
        <mxCell id="kU-_FVk9JHTEXMWnnN7E-20" value="" style="endArrow=none;html=1;rounded=0;" parent="1" edge="1">
          <mxGeometry width="50" height="50" relative="1" as="geometry">
            <mxPoint x="720" y="760" as="sourcePoint" />
            <mxPoint x="720" y="600" as="targetPoint" />
          </mxGeometry>
        </mxCell>
        <mxCell id="kU-_FVk9JHTEXMWnnN7E-21" value="" style="endArrow=classic;html=1;rounded=0;entryX=0.002;entryY=0.668;entryDx=0;entryDy=0;entryPerimeter=0;" parent="1" target="kU-_FVk9JHTEXMWnnN7E-18" edge="1">
          <mxGeometry width="50" height="50" relative="1" as="geometry">
            <mxPoint x="720" y="760" as="sourcePoint" />
            <mxPoint x="770" y="710" as="targetPoint" />
          </mxGeometry>
        </mxCell>
        <mxCell id="rz7ka_7LxreLIK_kCy7e-60" value="" style="endArrow=classic;html=1;rounded=0;entryX=0.237;entryY=0.993;entryDx=0;entryDy=0;entryPerimeter=0;exitX=0.997;exitY=0.351;exitDx=0;exitDy=0;exitPerimeter=0;startArrow=dash;startFill=0;" parent="1" source="kU-_FVk9JHTEXMWnnN7E-2" target="rz7ka_7LxreLIK_kCy7e-50" edge="1">
          <mxGeometry width="50" height="50" relative="1" as="geometry">
            <mxPoint x="1500" y="532" as="sourcePoint" />
            <mxPoint x="1490" y="480" as="targetPoint" />
          </mxGeometry>
        </mxCell>
        <mxCell id="rz7ka_7LxreLIK_kCy7e-61" value="32" style="edgeLabel;html=1;align=center;verticalAlign=middle;resizable=0;points=[];fontSize=20;" parent="rz7ka_7LxreLIK_kCy7e-60" vertex="1" connectable="0">
          <mxGeometry x="-0.1982" y="-1" relative="1" as="geometry">
            <mxPoint x="-37" y="-18" as="offset" />
          </mxGeometry>
        </mxCell>
        <mxCell id="rz7ka_7LxreLIK_kCy7e-62" value="" style="endArrow=classic;html=1;rounded=0;entryX=0.343;entryY=1;entryDx=0;entryDy=0;entryPerimeter=0;exitX=0.5;exitY=0.25;exitDx=0;exitDy=0;exitPerimeter=0;startArrow=dash;startFill=0;" parent="1" source="rz7ka_7LxreLIK_kCy7e-72" edge="1">
          <mxGeometry width="50" height="50" relative="1" as="geometry">
            <mxPoint x="1500" y="640" as="sourcePoint" />
            <mxPoint x="1583" y="640" as="targetPoint" />
          </mxGeometry>
        </mxCell>
        <mxCell id="rz7ka_7LxreLIK_kCy7e-63" value="32" style="edgeLabel;html=1;align=center;verticalAlign=middle;resizable=0;points=[];fontSize=20;" parent="rz7ka_7LxreLIK_kCy7e-62" vertex="1" connectable="0">
          <mxGeometry x="-0.1982" y="-1" relative="1" as="geometry">
            <mxPoint x="-32" y="-15" as="offset" />
          </mxGeometry>
        </mxCell>
        <mxCell id="rz7ka_7LxreLIK_kCy7e-66" value="" style="endArrow=classic;html=1;rounded=0;edgeStyle=orthogonalEdgeStyle;entryX=0.77;entryY=1.001;entryDx=0;entryDy=0;entryPerimeter=0;startArrow=dash;startFill=0;exitX=0.674;exitY=0.001;exitDx=0;exitDy=0;exitPerimeter=0;" parent="1" source="rz7ka_7LxreLIK_kCy7e-50" edge="1">
          <mxGeometry width="50" height="50" relative="1" as="geometry">
            <mxPoint x="1630" y="639" as="sourcePoint" />
            <mxPoint x="1053.72" y="679.1500000000001" as="targetPoint" />
            <Array as="points">
              <mxPoint x="1630" y="639" />
              <mxPoint x="1630" y="719" />
              <mxPoint x="1000" y="719" />
              <mxPoint x="1000" y="679" />
            </Array>
          </mxGeometry>
        </mxCell>
        <mxCell id="rz7ka_7LxreLIK_kCy7e-67" value="32" style="edgeLabel;html=1;align=center;verticalAlign=middle;resizable=0;points=[];fontSize=20;" parent="rz7ka_7LxreLIK_kCy7e-66" vertex="1" connectable="0">
          <mxGeometry x="0.303" y="-3" relative="1" as="geometry">
            <mxPoint x="320" y="-94" as="offset" />
          </mxGeometry>
        </mxCell>
        <mxCell id="rz7ka_7LxreLIK_kCy7e-72" value="" style="shape=trapezoid;perimeter=trapezoidPerimeter;whiteSpace=wrap;html=1;fixedSize=1;size=10;rotation=90;" parent="1" vertex="1">
          <mxGeometry x="1390" y="630" width="110" height="20" as="geometry" />
        </mxCell>
        <mxCell id="rz7ka_7LxreLIK_kCy7e-74" value="" style="endArrow=classic;html=1;rounded=0;entryX=0.227;entryY=0.984;entryDx=0;entryDy=0;entryPerimeter=0;exitX=0.999;exitY=0.668;exitDx=0;exitDy=0;exitPerimeter=0;startArrow=dash;startFill=0;" parent="1" source="kU-_FVk9JHTEXMWnnN7E-2" target="rz7ka_7LxreLIK_kCy7e-72" edge="1">
          <mxGeometry width="50" height="50" relative="1" as="geometry">
            <mxPoint x="1400" y="610" as="sourcePoint" />
            <mxPoint x="1470" y="610" as="targetPoint" />
          </mxGeometry>
        </mxCell>
        <mxCell id="rz7ka_7LxreLIK_kCy7e-75" value="32" style="edgeLabel;html=1;align=center;verticalAlign=middle;resizable=0;points=[];fontSize=20;" parent="rz7ka_7LxreLIK_kCy7e-74" vertex="1" connectable="0">
          <mxGeometry x="-0.1982" y="-1" relative="1" as="geometry">
            <mxPoint x="-10" y="-16" as="offset" />
          </mxGeometry>
        </mxCell>
        <mxCell id="kU-_FVk9JHTEXMWnnN7E-23" value="" style="endArrow=classic;html=1;rounded=0;exitX=1;exitY=0.5;exitDx=0;exitDy=0;startArrow=dash;startFill=0;edgeStyle=orthogonalEdgeStyle;entryX=0.7;entryY=1;entryDx=0;entryDy=0;entryPerimeter=0;endFill=1;" parent="1" source="kU-_FVk9JHTEXMWnnN7E-18" target="rz7ka_7LxreLIK_kCy7e-72" edge="1">
          <mxGeometry width="50" height="50" relative="1" as="geometry">
            <mxPoint x="940" y="740" as="sourcePoint" />
            <mxPoint x="1400" y="740" as="targetPoint" />
            <Array as="points">
              <mxPoint x="1380" y="740" />
              <mxPoint x="1380" y="662" />
            </Array>
          </mxGeometry>
        </mxCell>
        <mxCell id="kU-_FVk9JHTEXMWnnN7E-25" value="" style="endArrow=classic;html=1;rounded=0;edgeStyle=orthogonalEdgeStyle;endFill=1;entryX=-0.006;entryY=0.334;entryDx=0;entryDy=0;entryPerimeter=0;startArrow=dash;startFill=0;" parent="1" target="kU-_FVk9JHTEXMWnnN7E-18" edge="1">
          <mxGeometry width="50" height="50" relative="1" as="geometry">
            <mxPoint x="1340" y="190" as="sourcePoint" />
            <mxPoint x="760" y="650" as="targetPoint" />
            <Array as="points">
              <mxPoint x="1390" y="190" />
              <mxPoint x="1390" y="80" />
              <mxPoint x="740" y="80" />
              <mxPoint x="740" y="720" />
            </Array>
          </mxGeometry>
        </mxCell>
        <mxCell id="kU-_FVk9JHTEXMWnnN7E-72" value="&lt;font style=&quot;font-size: 20px;&quot;&gt;3&lt;/font&gt;" style="edgeLabel;html=1;align=center;verticalAlign=middle;resizable=0;points=[];" parent="kU-_FVk9JHTEXMWnnN7E-25" vertex="1" connectable="0">
          <mxGeometry x="0.8908" y="1" relative="1" as="geometry">
            <mxPoint x="619" y="-478" as="offset" />
          </mxGeometry>
        </mxCell>
        <mxCell id="kU-_FVk9JHTEXMWnnN7E-27" value="" style="endArrow=classic;html=1;rounded=0;endFill=1;edgeStyle=orthogonalEdgeStyle;entryX=0;entryY=0.5;entryDx=0;entryDy=0;" parent="1" target="kU-_FVk9JHTEXMWnnN7E-55" edge="1">
          <mxGeometry width="50" height="50" relative="1" as="geometry">
            <mxPoint x="1340" y="230" as="sourcePoint" />
            <mxPoint x="1480" y="230" as="targetPoint" />
            <Array as="points">
              <mxPoint x="1690" y="231" />
              <mxPoint x="1690" y="700" />
            </Array>
          </mxGeometry>
        </mxCell>
        <mxCell id="kU-_FVk9JHTEXMWnnN7E-28" value="" style="endArrow=classic;html=1;rounded=0;endFill=1;edgeStyle=orthogonalEdgeStyle;entryX=0;entryY=0.5;entryDx=0;entryDy=0;startArrow=dash;startFill=0;" parent="1" target="rz7ka_7LxreLIK_kCy7e-50" edge="1">
          <mxGeometry width="50" height="50" relative="1" as="geometry">
            <mxPoint x="1340" y="250" as="sourcePoint" />
            <mxPoint x="1630" y="430" as="targetPoint" />
          </mxGeometry>
        </mxCell>
        <mxCell id="kU-_FVk9JHTEXMWnnN7E-49" value="4" style="edgeLabel;html=1;align=center;verticalAlign=middle;resizable=0;points=[];fontSize=20;" parent="kU-_FVk9JHTEXMWnnN7E-28" vertex="1" connectable="0">
          <mxGeometry x="0.6932" y="-2" relative="1" as="geometry">
            <mxPoint x="-186" y="-184" as="offset" />
          </mxGeometry>
        </mxCell>
        <mxCell id="kU-_FVk9JHTEXMWnnN7E-29" value="" style="endArrow=classic;html=1;rounded=0;endFill=1;edgeStyle=orthogonalEdgeStyle;entryX=0;entryY=0.5;entryDx=0;entryDy=0;startArrow=none;startFill=0;" parent="1" target="rz7ka_7LxreLIK_kCy7e-72" edge="1">
          <mxGeometry width="50" height="50" relative="1" as="geometry">
            <mxPoint x="1340" y="270" as="sourcePoint" />
            <mxPoint x="1530" y="270" as="targetPoint" />
          </mxGeometry>
        </mxCell>
        <mxCell id="kU-_FVk9JHTEXMWnnN7E-30" value="" style="endArrow=none;html=1;rounded=0;" parent="1" edge="1">
          <mxGeometry width="50" height="50" relative="1" as="geometry">
            <mxPoint x="1340" y="290" as="sourcePoint" />
            <mxPoint x="1400" y="290" as="targetPoint" />
          </mxGeometry>
        </mxCell>
        <mxCell id="kU-_FVk9JHTEXMWnnN7E-32" value="&lt;font style=&quot;font-size: 20px;&quot;&gt;opcode&lt;br&gt;&lt;br&gt;funct3&lt;br&gt;&lt;br&gt;funct7&lt;/font&gt;" style="text;html=1;strokeColor=none;fillColor=none;align=center;verticalAlign=middle;whiteSpace=wrap;rounded=0;" parent="1" vertex="1">
          <mxGeometry x="1060" y="162.5" width="60" height="155" as="geometry" />
        </mxCell>
        <mxCell id="kU-_FVk9JHTEXMWnnN7E-33" value="&lt;p style=&quot;line-height: 0%; font-size: 20px;&quot;&gt;&lt;span style=&quot;background-color: initial;&quot;&gt;sext_op&lt;/span&gt;&lt;br&gt;&lt;/p&gt;&lt;p style=&quot;line-height: 0%; font-size: 20px;&quot;&gt;&lt;font style=&quot;font-size: 20px;&quot;&gt;npc_op&lt;/font&gt;&lt;/p&gt;&lt;p style=&quot;line-height: 0%; font-size: 20px;&quot;&gt;&lt;font style=&quot;font-size: 20px;&quot;&gt;ram_we&lt;/font&gt;&lt;/p&gt;&lt;p style=&quot;line-height: 0%; font-size: 20px;&quot;&gt;&lt;font style=&quot;font-size: 20px;&quot;&gt;alu_op&lt;/font&gt;&lt;/p&gt;&lt;p style=&quot;line-height: 0%; font-size: 20px;&quot;&gt;&lt;font style=&quot;font-size: 20px;&quot;&gt;alub_sel&lt;/font&gt;&lt;/p&gt;&lt;p style=&quot;line-height: 0%; font-size: 20px;&quot;&gt;&lt;font style=&quot;font-size: 20px;&quot;&gt;rf_we&lt;/font&gt;&lt;/p&gt;&lt;p style=&quot;line-height: 0%; font-size: 20px;&quot;&gt;&lt;font style=&quot;font-size: 20px;&quot;&gt;rf_wsel&lt;/font&gt;&lt;br&gt;&lt;/p&gt;" style="text;html=1;strokeColor=none;fillColor=none;align=center;verticalAlign=middle;whiteSpace=wrap;rounded=0;" parent="1" vertex="1">
          <mxGeometry x="1267.5" y="157" width="60" height="180" as="geometry" />
        </mxCell>
        <mxCell id="kU-_FVk9JHTEXMWnnN7E-35" value="&lt;font style=&quot;font-size: 20px;&quot;&gt;&lt;font style=&quot;font-size: 20px;&quot;&gt;rD1&lt;br&gt;&lt;/font&gt;&lt;br&gt;&lt;br&gt;rD2&lt;/font&gt;" style="text;html=1;strokeColor=none;fillColor=none;align=center;verticalAlign=middle;whiteSpace=wrap;rounded=0;" parent="1" vertex="1">
          <mxGeometry x="1300" y="507" width="60" height="115" as="geometry" />
        </mxCell>
        <mxCell id="kU-_FVk9JHTEXMWnnN7E-36" value="" style="endArrow=classic;html=1;rounded=0;" parent="1" edge="1">
          <mxGeometry width="50" height="50" relative="1" as="geometry">
            <mxPoint x="1120" y="480" as="sourcePoint" />
            <mxPoint x="1150" y="480" as="targetPoint" />
          </mxGeometry>
        </mxCell>
        <mxCell id="kU-_FVk9JHTEXMWnnN7E-37" value="" style="endArrow=none;html=1;rounded=0;" parent="1" edge="1">
          <mxGeometry width="50" height="50" relative="1" as="geometry">
            <mxPoint x="1120" y="480" as="sourcePoint" />
            <mxPoint x="1120" y="400" as="targetPoint" />
          </mxGeometry>
        </mxCell>
        <mxCell id="kU-_FVk9JHTEXMWnnN7E-38" value="" style="endArrow=none;html=1;rounded=0;" parent="1" edge="1">
          <mxGeometry width="50" height="50" relative="1" as="geometry">
            <mxPoint x="1120" y="400" as="sourcePoint" />
            <mxPoint x="1400" y="400" as="targetPoint" />
          </mxGeometry>
        </mxCell>
        <mxCell id="kU-_FVk9JHTEXMWnnN7E-39" value="" style="endArrow=none;html=1;rounded=0;" parent="1" edge="1">
          <mxGeometry width="50" height="50" relative="1" as="geometry">
            <mxPoint x="1400" y="400" as="sourcePoint" />
            <mxPoint x="1400" y="290" as="targetPoint" />
          </mxGeometry>
        </mxCell>
        <mxCell id="kU-_FVk9JHTEXMWnnN7E-41" value="" style="shape=trapezoid;perimeter=trapezoidPerimeter;whiteSpace=wrap;html=1;fixedSize=1;rotation=90;size=7.5;" parent="1" vertex="1">
          <mxGeometry x="1025.62" y="654.37" width="86.25" height="30" as="geometry" />
        </mxCell>
        <mxCell id="kU-_FVk9JHTEXMWnnN7E-42" value="" style="endArrow=classic;html=1;rounded=0;entryX=0;entryY=0.5;entryDx=0;entryDy=0;edgeStyle=orthogonalEdgeStyle;exitX=1;exitY=0.873;exitDx=0;exitDy=0;exitPerimeter=0;startArrow=dash;startFill=0;" parent="1" source="kU-_FVk9JHTEXMWnnN7E-1" target="kU-_FVk9JHTEXMWnnN7E-41" edge="1">
          <mxGeometry width="50" height="50" relative="1" as="geometry">
            <mxPoint x="1070" y="360" as="sourcePoint" />
            <mxPoint x="1090" y="390" as="targetPoint" />
            <Array as="points">
              <mxPoint x="1360" y="307" />
              <mxPoint x="1360" y="360" />
              <mxPoint x="1069" y="360" />
            </Array>
          </mxGeometry>
        </mxCell>
        <mxCell id="zNF0i5-EFTVFY3dPYjrF-11" value="&lt;font style=&quot;font-size: 18px;&quot;&gt;2&lt;/font&gt;" style="edgeLabel;html=1;align=center;verticalAlign=middle;resizable=0;points=[];" parent="kU-_FVk9JHTEXMWnnN7E-42" vertex="1" connectable="0">
          <mxGeometry x="-0.8903" y="2" relative="1" as="geometry">
            <mxPoint x="-12" y="-2" as="offset" />
          </mxGeometry>
        </mxCell>
        <mxCell id="kU-_FVk9JHTEXMWnnN7E-45" value="" style="endArrow=classic;html=1;rounded=0;exitX=0.412;exitY=-0.002;exitDx=0;exitDy=0;entryX=0;entryY=0.882;entryDx=0;entryDy=0;entryPerimeter=0;exitPerimeter=0;" parent="1" source="kU-_FVk9JHTEXMWnnN7E-41" target="kU-_FVk9JHTEXMWnnN7E-2" edge="1">
          <mxGeometry width="50" height="50" relative="1" as="geometry">
            <mxPoint x="1110" y="670" as="sourcePoint" />
            <mxPoint x="1160" y="620" as="targetPoint" />
          </mxGeometry>
        </mxCell>
        <mxCell id="kU-_FVk9JHTEXMWnnN7E-46" value="" style="endArrow=classic;html=1;rounded=0;entryX=0.403;entryY=1.007;entryDx=0;entryDy=0;edgeStyle=orthogonalEdgeStyle;startArrow=oval;startFill=1;entryPerimeter=0;" parent="1" target="kU-_FVk9JHTEXMWnnN7E-41" edge="1">
          <mxGeometry width="50" height="50" relative="1" as="geometry">
            <mxPoint x="960" y="740" as="sourcePoint" />
            <mxPoint x="990" y="660" as="targetPoint" />
            <Array as="points">
              <mxPoint x="960" y="661" />
            </Array>
          </mxGeometry>
        </mxCell>
        <mxCell id="kU-_FVk9JHTEXMWnnN7E-47" value="&lt;p style=&quot;line-height: 200%; font-size: 20px;&quot;&gt;op&lt;br&gt;din&lt;/p&gt;" style="text;html=1;strokeColor=none;fillColor=none;align=center;verticalAlign=middle;whiteSpace=wrap;rounded=0;" parent="1" vertex="1">
          <mxGeometry x="745" y="704" width="60" height="70" as="geometry" />
        </mxCell>
        <mxCell id="kU-_FVk9JHTEXMWnnN7E-48" value="&lt;font style=&quot;font-size: 20px;&quot;&gt;ext&lt;/font&gt;" style="text;html=1;strokeColor=none;fillColor=none;align=center;verticalAlign=middle;whiteSpace=wrap;rounded=0;" parent="1" vertex="1">
          <mxGeometry x="874" y="731" width="20" height="16" as="geometry" />
        </mxCell>
        <mxCell id="kU-_FVk9JHTEXMWnnN7E-51" value="&lt;p style=&quot;line-height: 100%; font-size: 20px;&quot;&gt;we&lt;br&gt;&lt;br&gt;rR1&lt;br&gt;&lt;br&gt;rR2&lt;br&gt;&lt;br&gt;wR&lt;br&gt;&lt;/p&gt;" style="text;html=1;strokeColor=none;fillColor=none;align=center;verticalAlign=middle;whiteSpace=wrap;rounded=0;" parent="1" vertex="1">
          <mxGeometry x="1150" y="457" width="60" height="170" as="geometry" />
        </mxCell>
        <mxCell id="kU-_FVk9JHTEXMWnnN7E-53" value="&lt;font style=&quot;font-size: 20px;&quot;&gt;wD&lt;/font&gt;" style="text;html=1;strokeColor=none;fillColor=none;align=center;verticalAlign=middle;whiteSpace=wrap;rounded=0;" parent="1" vertex="1">
          <mxGeometry x="1150" y="640" width="60" height="30" as="geometry" />
        </mxCell>
        <mxCell id="kU-_FVk9JHTEXMWnnN7E-56" value="" style="endArrow=classic;html=1;rounded=0;entryX=0;entryY=0.196;entryDx=0;entryDy=0;entryPerimeter=0;startArrow=oval;startFill=1;" parent="1" edge="1">
          <mxGeometry width="50" height="50" relative="1" as="geometry">
            <mxPoint x="1630" y="639" as="sourcePoint" />
            <mxPoint x="1921" y="639.2" as="targetPoint" />
          </mxGeometry>
        </mxCell>
        <mxCell id="kU-_FVk9JHTEXMWnnN7E-57" value="" style="endArrow=classic;html=1;rounded=0;entryX=-0.001;entryY=0.799;entryDx=0;entryDy=0;entryPerimeter=0;edgeStyle=orthogonalEdgeStyle;startArrow=oval;startFill=1;" parent="1" target="kU-_FVk9JHTEXMWnnN7E-55" edge="1">
          <mxGeometry width="50" height="50" relative="1" as="geometry">
            <mxPoint x="1410" y="610" as="sourcePoint" />
            <mxPoint x="1920" y="760" as="targetPoint" />
            <Array as="points">
              <mxPoint x="1410" y="610" />
              <mxPoint x="1410" y="760" />
            </Array>
          </mxGeometry>
        </mxCell>
        <mxCell id="kU-_FVk9JHTEXMWnnN7E-61" value="" style="group" parent="1" vertex="1" connectable="0">
          <mxGeometry x="1720" y="600" width="200" height="200" as="geometry" />
        </mxCell>
        <mxCell id="kU-_FVk9JHTEXMWnnN7E-55" value="&lt;font style=&quot;font-size: 24px;&quot;&gt;DRAM&lt;/font&gt;" style="rounded=0;whiteSpace=wrap;html=1;" parent="kU-_FVk9JHTEXMWnnN7E-61" vertex="1">
          <mxGeometry width="200" height="200" as="geometry" />
        </mxCell>
        <mxCell id="kU-_FVk9JHTEXMWnnN7E-60" value="" style="triangle;whiteSpace=wrap;html=1;rotation=-90;" parent="kU-_FVk9JHTEXMWnnN7E-61" vertex="1">
          <mxGeometry x="90" y="175" width="20" height="30" as="geometry" />
        </mxCell>
        <mxCell id="kU-_FVk9JHTEXMWnnN7E-58" value="&lt;p style=&quot;line-height: 140%;&quot;&gt;&lt;font style=&quot;font-size: 20px;&quot;&gt;adr&lt;br&gt;&lt;br&gt;&lt;br&gt;we&lt;br&gt;&lt;br&gt;&lt;br&gt;wdin&lt;/font&gt;&lt;/p&gt;" style="text;html=1;strokeColor=none;fillColor=none;align=center;verticalAlign=middle;whiteSpace=wrap;rounded=0;" parent="kU-_FVk9JHTEXMWnnN7E-61" vertex="1">
          <mxGeometry y="27.5" width="60" height="145" as="geometry" />
        </mxCell>
        <mxCell id="kU-_FVk9JHTEXMWnnN7E-71" value="&lt;font style=&quot;font-size: 20px;&quot;&gt;rdo&lt;/font&gt;" style="text;html=1;strokeColor=none;fillColor=none;align=center;verticalAlign=middle;whiteSpace=wrap;rounded=0;" parent="kU-_FVk9JHTEXMWnnN7E-61" vertex="1">
          <mxGeometry x="170" y="90" width="30" height="20" as="geometry" />
        </mxCell>
        <mxCell id="kU-_FVk9JHTEXMWnnN7E-64" value="" style="edgeStyle=orthogonalEdgeStyle;rounded=0;orthogonalLoop=1;jettySize=auto;html=1;" parent="1" source="kU-_FVk9JHTEXMWnnN7E-63" target="kU-_FVk9JHTEXMWnnN7E-60" edge="1">
          <mxGeometry relative="1" as="geometry" />
        </mxCell>
        <mxCell id="kU-_FVk9JHTEXMWnnN7E-63" value="&lt;font style=&quot;font-size: 20px;&quot;&gt;clk&lt;/font&gt;" style="text;html=1;strokeColor=none;fillColor=none;align=center;verticalAlign=middle;whiteSpace=wrap;rounded=0;" parent="1" vertex="1">
          <mxGeometry x="1810" y="850" width="20" height="22" as="geometry" />
        </mxCell>
        <mxCell id="kU-_FVk9JHTEXMWnnN7E-69" value="" style="endArrow=classic;html=1;rounded=0;exitX=1;exitY=0.5;exitDx=0;exitDy=0;edgeStyle=orthogonalEdgeStyle;entryX=0.854;entryY=1.003;entryDx=0;entryDy=0;entryPerimeter=0;" parent="1" source="kU-_FVk9JHTEXMWnnN7E-55" target="kU-_FVk9JHTEXMWnnN7E-41" edge="1">
          <mxGeometry width="50" height="50" relative="1" as="geometry">
            <mxPoint x="2190" y="720" as="sourcePoint" />
            <mxPoint x="1050" y="700" as="targetPoint" />
            <Array as="points">
              <mxPoint x="1940" y="700" />
              <mxPoint x="1940" y="840" />
              <mxPoint x="1020" y="840" />
              <mxPoint x="1020" y="700" />
            </Array>
          </mxGeometry>
        </mxCell>
        <mxCell id="zNF0i5-EFTVFY3dPYjrF-3" value="" style="triangle;whiteSpace=wrap;html=1;rotation=-90;" parent="1" vertex="1">
          <mxGeometry x="1247.5" y="670" width="15" height="25" as="geometry" />
        </mxCell>
        <mxCell id="zNF0i5-EFTVFY3dPYjrF-4" value="" style="endArrow=classic;html=1;rounded=0;entryX=0;entryY=0.5;entryDx=0;entryDy=0;exitX=0.5;exitY=0;exitDx=0;exitDy=0;" parent="1" source="zNF0i5-EFTVFY3dPYjrF-5" target="zNF0i5-EFTVFY3dPYjrF-3" edge="1">
          <mxGeometry width="50" height="50" relative="1" as="geometry">
            <mxPoint x="1255" y="750" as="sourcePoint" />
            <mxPoint x="1270" y="750" as="targetPoint" />
          </mxGeometry>
        </mxCell>
        <mxCell id="zNF0i5-EFTVFY3dPYjrF-5" value="&lt;font style=&quot;font-size: 20px;&quot;&gt;clk&lt;/font&gt;" style="text;html=1;strokeColor=none;fillColor=none;align=center;verticalAlign=middle;whiteSpace=wrap;rounded=0;" parent="1" vertex="1">
          <mxGeometry x="1242.5" y="770" width="25" height="20" as="geometry" />
        </mxCell>
        <mxCell id="zNF0i5-EFTVFY3dPYjrF-8" value="" style="group" parent="1" vertex="1" connectable="0">
          <mxGeometry x="280" y="337" width="220" height="170" as="geometry" />
        </mxCell>
        <mxCell id="6GQvzPRbgIQKS9411y36-2" value="&lt;font style=&quot;font-size: 24px;&quot;&gt;NPC&lt;/font&gt;" style="rounded=0;whiteSpace=wrap;html=1;" parent="zNF0i5-EFTVFY3dPYjrF-8" vertex="1">
          <mxGeometry x="10" width="210" height="170" as="geometry" />
        </mxCell>
        <mxCell id="6GQvzPRbgIQKS9411y36-23" value="&lt;font style=&quot;font-size: 20px;&quot;&gt;PC&lt;/font&gt;" style="text;html=1;strokeColor=none;fillColor=none;align=center;verticalAlign=middle;whiteSpace=wrap;rounded=0;" parent="zNF0i5-EFTVFY3dPYjrF-8" vertex="1">
          <mxGeometry y="24.5" width="60" height="30" as="geometry" />
        </mxCell>
        <mxCell id="6GQvzPRbgIQKS9411y36-24" value="&lt;font style=&quot;font-size: 24px;&quot;&gt;offset&lt;/font&gt;" style="text;html=1;strokeColor=none;fillColor=none;align=center;verticalAlign=middle;whiteSpace=wrap;rounded=0;" parent="zNF0i5-EFTVFY3dPYjrF-8" vertex="1">
          <mxGeometry x="13" y="80" width="60" height="30" as="geometry" />
        </mxCell>
        <mxCell id="6GQvzPRbgIQKS9411y36-25" value="&lt;font style=&quot;font-size: 24px;&quot;&gt;br&lt;/font&gt;" style="text;html=1;strokeColor=none;fillColor=none;align=center;verticalAlign=middle;whiteSpace=wrap;rounded=0;" parent="zNF0i5-EFTVFY3dPYjrF-8" vertex="1">
          <mxGeometry y="109" width="60" height="30" as="geometry" />
        </mxCell>
        <mxCell id="6GQvzPRbgIQKS9411y36-26" value="&lt;font style=&quot;font-size: 24px;&quot;&gt;op&lt;/font&gt;" style="text;html=1;strokeColor=none;fillColor=none;align=center;verticalAlign=middle;whiteSpace=wrap;rounded=0;" parent="zNF0i5-EFTVFY3dPYjrF-8" vertex="1">
          <mxGeometry y="139" width="60" height="30" as="geometry" />
        </mxCell>
        <mxCell id="kU-_FVk9JHTEXMWnnN7E-59" value="&lt;font style=&quot;font-size: 24px;&quot;&gt;npc&lt;br&gt;&lt;br&gt;&lt;br&gt;pc4&lt;/font&gt;" style="text;html=1;strokeColor=none;fillColor=none;align=center;verticalAlign=middle;whiteSpace=wrap;rounded=0;" parent="zNF0i5-EFTVFY3dPYjrF-8" vertex="1">
          <mxGeometry x="160" y="33" width="60" height="110" as="geometry" />
        </mxCell>
        <mxCell id="zNF0i5-EFTVFY3dPYjrF-6" value="&lt;font style=&quot;font-size: 24px;&quot;&gt;aluin&lt;/font&gt;" style="text;html=1;strokeColor=none;fillColor=none;align=center;verticalAlign=middle;whiteSpace=wrap;rounded=0;" parent="zNF0i5-EFTVFY3dPYjrF-8" vertex="1">
          <mxGeometry x="13" y="50" width="60" height="30" as="geometry" />
        </mxCell>
        <mxCell id="3Fvi0G5CmbAH0QvH1JDg-1" value="" style="group" parent="1" vertex="1" connectable="0">
          <mxGeometry x="1490" y="480" width="120" height="236" as="geometry" />
        </mxCell>
        <mxCell id="rz7ka_7LxreLIK_kCy7e-50" value="&lt;font style=&quot;font-size: 24px;&quot;&gt;ALU&lt;/font&gt;" style="shape=trapezoid;perimeter=trapezoidPerimeter;whiteSpace=wrap;html=1;fixedSize=1;rotation=90;size=40;horizontal=0;" parent="3Fvi0G5CmbAH0QvH1JDg-1" vertex="1">
          <mxGeometry x="-60" y="73" width="236" height="90" as="geometry" />
        </mxCell>
        <mxCell id="rz7ka_7LxreLIK_kCy7e-52" value="&lt;font style=&quot;font-size: 20px;&quot;&gt;f&lt;/font&gt;" style="text;html=1;strokeColor=none;fillColor=none;align=center;verticalAlign=middle;whiteSpace=wrap;rounded=0;" parent="3Fvi0G5CmbAH0QvH1JDg-1" vertex="1">
          <mxGeometry x="80" y="73" width="20" height="20" as="geometry" />
        </mxCell>
        <mxCell id="rz7ka_7LxreLIK_kCy7e-57" value="&lt;font style=&quot;font-size: 18px;&quot;&gt;op&lt;/font&gt;" style="text;html=1;strokeColor=none;fillColor=none;align=center;verticalAlign=middle;whiteSpace=wrap;rounded=0;" parent="3Fvi0G5CmbAH0QvH1JDg-1" vertex="1">
          <mxGeometry x="50" y="28" width="10" height="10" as="geometry" />
        </mxCell>
        <mxCell id="rz7ka_7LxreLIK_kCy7e-58" value="&lt;font style=&quot;font-size: 20px;&quot;&gt;A&lt;/font&gt;" style="text;html=1;strokeColor=none;fillColor=none;align=center;verticalAlign=middle;whiteSpace=wrap;rounded=0;" parent="3Fvi0G5CmbAH0QvH1JDg-1" vertex="1">
          <mxGeometry y="43" width="60" height="30" as="geometry" />
        </mxCell>
        <mxCell id="rz7ka_7LxreLIK_kCy7e-59" value="&lt;font style=&quot;font-size: 20px;&quot;&gt;B&lt;/font&gt;" style="text;html=1;strokeColor=none;fillColor=none;align=center;verticalAlign=middle;whiteSpace=wrap;rounded=0;" parent="3Fvi0G5CmbAH0QvH1JDg-1" vertex="1">
          <mxGeometry y="148" width="60" height="30" as="geometry" />
        </mxCell>
        <mxCell id="rz7ka_7LxreLIK_kCy7e-70" value="&lt;font style=&quot;font-size: 20px;&quot;&gt;C&lt;/font&gt;" style="text;html=1;strokeColor=none;fillColor=none;align=center;verticalAlign=middle;whiteSpace=wrap;rounded=0;" parent="3Fvi0G5CmbAH0QvH1JDg-1" vertex="1">
          <mxGeometry x="60" y="150" width="60" height="30" as="geometry" />
        </mxCell>
      </root>
    </mxGraphModel>
  </diagram>
</mxfile>
